# xmcd
#
# Track frame offsets: 
#        183
#        13095
#        24945
#        36270
#        39608
#        49158
#        57008
#        67408
#        82283
#        94320
#        98483
#        109395
#        114713
#        127470
#        141883
#        156095
#        170695
#        187633
#
# Disc length: 2664 seconds
#
# Revision: 4
# Processed by: cddbd v1.5.2PL0 Copyright (c) Steve Scherf et al.
# Submitted via: ExactAudioCopy v0.99pb4
#
DISCID=050a6612
DTITLE=Billie Holiday - The Essential Billie Holiday - Carnegie Hall C
DTITLE=oncert
DYEAR=1989
DGENRE=Jazz
TTITLE0=Narration
TTITLE1=Lady Sings The Blues
TTITLE2=It Ain't Nobody's Business
TTITLE3=Narration With Vocal Of Travelin' Light
TTITLE4=Narration
TTITLE5=Please Don't Talk About Me When I'm Gone
TTITLE6=I'll Be Seeing You
TTITLE7=I Love My Man
TTITLE8=Body and Soul
TTITLE9=Narration
TTITLE10=Don't Explain
TTITLE11=Yesterdays
TTITLE12=Narration
TTITLE13=My Man
TTITLE14=I Cried For You
TTITLE15=Fine and Mellow
TTITLE16=I Cover The Waterfront
TTITLE17=What A Little Moonlight Can Do
EXTD=Entry: Martin Emmerich <me@grmbl.muc.de>\n03-Mar-1998 YEAR: 1989 
EXTD=ID3G: 8
EXTT0=
EXTT1=
EXTT2=
EXTT3=
EXTT4=
EXTT5=
EXTT6=
EXTT7=
EXTT8=
EXTT9=
EXTT10=
EXTT11=
EXTT12=
EXTT13=
EXTT14=
EXTT15=
EXTT16=
EXTT17=
PLAYORDER=
